<svg width="31" height="63" viewBox="0 0 31 63" fill="none" xmlns="http://www.w3.org/2000/svg">
<path id="arrow" d="M0.28205 2.66984C0.0452447 2.81189 -0.0315704 3.11902 0.110477 3.35582L2.42528 7.21479C2.56733 7.4516 2.87445 7.52842 3.11126 7.38637C3.34806 7.24432 3.42488 6.9372 3.28283 6.70039L1.22523 3.2702L4.65542 1.21259C4.89223 1.07054 4.96905 0.763423 4.827 0.526612C4.68495 0.289807 4.37783 0.212995 4.14102 0.355038L0.28205 2.66984ZM26 62.6415C26.4556 62.8474 26.4557 62.8472 26.4559 62.8469C26.456 62.8467 26.4561 62.8463 26.4563 62.846C26.4567 62.8452 26.4571 62.8441 26.4577 62.8428C26.4589 62.8401 26.4606 62.8363 26.4628 62.8314C26.4672 62.8216 26.4735 62.8073 26.4817 62.7886C26.4981 62.7513 26.5219 62.6964 26.5525 62.6244C26.6137 62.4806 26.7018 62.2687 26.8109 61.9935C27.0292 61.4432 27.3318 60.6392 27.6718 59.6189C28.3517 57.5789 29.182 54.6712 29.7861 51.1945C30.9934 44.2464 31.3029 34.9923 27.6677 25.847L26.7385 26.2164C30.2818 35.1305 29.9897 44.1814 28.8009 51.0233C28.2069 54.4416 27.3905 57.3003 26.7231 59.3028C26.3895 60.3038 26.0934 61.0902 25.8813 61.6248C25.7753 61.8922 25.6903 62.0965 25.6322 62.2332C25.6032 62.3015 25.5808 62.353 25.5659 62.3869C25.5585 62.4039 25.5529 62.4165 25.5493 62.4246C25.5475 62.4287 25.5461 62.4317 25.5453 62.4335C25.5449 62.4344 25.5446 62.4351 25.5445 62.4354C25.5444 62.4356 25.5443 62.4357 25.5443 62.4358C25.5443 62.4357 25.5444 62.4357 26 62.6415ZM27.6677 25.847C24.0251 16.683 17.2641 10.8755 11.4373 7.3646C8.52247 5.60831 5.83465 4.42243 3.87409 3.67509C2.89351 3.30131 2.09397 3.0369 1.5378 2.86549C1.25969 2.77977 1.04236 2.71728 0.893578 2.67599C0.819184 2.65533 0.761926 2.63998 0.722767 2.62965C0.703191 2.6245 0.688137 2.6206 0.677732 2.61793C0.672529 2.61659 0.668485 2.61556 0.665621 2.61483C0.66419 2.61448 0.663049 2.61418 0.662207 2.61397C0.661788 2.61387 0.66138 2.61377 0.661167 2.61371C0.660833 2.61363 0.660573 2.61357 0.539251 3.09862C0.417929 3.58368 0.417817 3.58365 0.41778 3.58364C0.417866 3.58366 0.417902 3.58367 0.418073 3.58371C0.418417 3.5838 0.419057 3.58397 0.419987 3.5842C0.421849 3.58467 0.424882 3.58544 0.429073 3.58652C0.437453 3.58867 0.450458 3.59204 0.467966 3.59665C0.502985 3.60588 0.556016 3.62009 0.62609 3.63954C0.766247 3.67845 0.974551 3.73831 1.24327 3.82113C1.78074 3.98678 2.55958 4.24421 3.51791 4.60951C5.43519 5.34034 8.06736 6.50158 10.9212 8.22113C16.6317 11.6619 23.2026 17.321 26.7385 26.2164L27.6677 25.847Z" fill="#313030"/>
</svg>
