<svg width="47" height="48" viewBox="0 0 47 48" fill="none" xmlns="http://www.w3.org/2000/svg">
<g id="Group">
<g id="rr3Ork 1">
<g id="Group_2">
<path id="Vector" d="M46.8 20.2C46.8 20.9 46.8 21.5 46.8 22.2C46.8 22.3 46.7 22.3 46.7 22.4C46.5 24.4 45.8 26.3 44.7 28C43.9 29.3 42.8 30.3 41.8 31.4C36.8 36.4 31.7 41.3 26.7 46.3C26.3 46.7 25.8 47.1 25.3 47.5C25.1 47.5 25 47.5 24.8 47.5C24.6 47.3 24.3 47.2 24.1 47C18.4 41.4 12.7 35.8 7.09999 30.2C5.39999 28.5 4.19999 26.4 3.69999 24.1C3.49999 23.4 3.49999 22.8 3.39999 22.1C3.39999 21.4 3.39999 20.8 3.39999 20.1C3.39999 19.8 3.49999 19.5 3.49999 19.2C4.39999 13.3 9.59999 8.59998 15.5 8.29998C18.1 8.19998 20.5 8.69998 22.8 9.89998C22.9434 10.0433 25.4312 9.99998 27.1 9.99998C27.2 9.99998 27.3 9.89998 27.4 9.79998C30.2 8.29998 33.3 7.69998 36.4 8.39998C41.6 9.59998 45.1 12.7 46.5 18C46.6 18.7 46.7 19.5 46.8 20.2Z" fill="#FFE145"/>
</g>
</g>
<path id="Vector_2" fill-rule="evenodd" clip-rule="evenodd" d="M22.9 21.9L22 26.1H24.9L24.1 22L22.9 21.9Z" fill="white"/>
<g id="x30 HS9J6 1">
<g id="Group_3">
<path id="Vector_3" fill-rule="evenodd" clip-rule="evenodd" d="M24.6 9.7C24.7 9.6 24.8 9.6 24.9 9.5C26.7 8.5 28.6 7.9 30.7 7.8C34 7.6 37 8.6 39.6 10.7C42.3 12.9 43.9 15.8 44.4 19.2C44.9 23.1 43.8 26.5 41.3 29.5C40.1 30.9 38.7 32.2 37.3 33.6C32.7 38.2 28.2 42.7 23.6 47.3C22.9 48 22.5 48 21.8 47.3C16.1 41.6 10.5 36 4.80001 30.3C2.50001 28 1.20001 25.2 1.00001 21.9C0.700008 18.4 1.80001 15.3 4.00001 12.6C6.30001 9.7 9.40001 8.2 13.1 7.9C15.8 7.6 18.3 8.3 20.6 9.6C20.7 9.6 20.8 9.7 20.9 9.8C21.105 8.57 21.3 7.24205 21.3 6C21.3 5.8 21.2 5.5 21.1 5.3C20.7 4.8 20.6 4.4 20.9 3.8C21.2 3.2 21.6 2.6 22 2C22.1241 1.81389 22.2 1.9 22.2 1.3C22.2 1.1 22.2 0.9 22.2 0.6C22.2 0.3 22.5 0 22.8 0C23.1 0 23.4 0.2 23.4 0.6C23.4 1.1 23.4 1.6 23.4 1.1C23.4 1.3 23.5 1.8 23.6 2C24.0447 2.74117 24.3224 3.28366 24.8 4C25 4.4 25 4.7 24.7 5C24.3 5.4 24.2 5.8 24.3 6.3C24.357 7.43971 24.6 8.5568 24.6 9.7ZM15.3 34.8C14.6 34.8 13.9 34.8 13.2 34.8C12.9 34.8 12.7 34.8 12.5 34.5C12.3 34.2 12.5 34 12.6 33.7C12.9 33.3 13.1 33 13.4 32.6C14.6 30.7 15.8 28.8 17 26.9C17.2 26.6 17.2 26.5 16.8 26.5C16.4 26.5 16.2 26.2 16.2 25.9C16.2 25.6 16.4 25.3 16.8 25.3C17.1 25.3 17.3 25.3 17.6 25.3C17.7 25.3 17.9 25.2 18 25.1C18.4 24.2 18.9 23.3 19.2 22.4C19.5 21.7 19.7 21 19.9 20.3C20 19.9 19.9 19.8 19.6 19.8C19.4 19.8 19.3 19.8 19.1 19.8C18.7 19.8 18.5 19.5 18.5 19.2C18.5 18.8 18.7 18.6 19.2 18.6C19.4 18.6 19.6 18.6 19.8 18.6C20.4 18.6 20.4 18.6 20.5 18C20.7 16.3 20.9 14.6 21 12.9C21.1 11.6 21.1 11.6 19.9 10.9C17.7 9.7 15.3 9.3 12.8 9.6C9.10001 10.1 6.30001 12 4.40001 15.2C3.10001 17.4 2.80001 19.8 3.10001 22.4C3.40001 24.9 4.50001 27.1 6.30001 28.9C8.00001 30.6 9.80001 32.4 11.5 34.1C15.2 37.8 18.9 41.5 22.5 45.1C22.8 45.4 23.1 45.4 23.4 45.1C28.6 40 33.7 34.8 38.9 29.7C40 28.6 41 27.5 41.7 26.1C42.9 23.8 43.1 21.3 42.8 18.8C42.5 16.6 41.4 14.6 39.9 13C38.8 11.9 37.6 11 36.2 10.4C34 9.5 31.8 9.3 29.5 9.7C27.9 10 26.5 10.6 25.2 11.5C25 11.6 24.9 11.8 25 12C25.2 13.9 25.4 15.7 25.5 17.6C25.5 17.8 25.5 18.1 25.6 18.3C25.6 18.4 25.8 18.5 25.9 18.5C26.2 18.5 26.5 18.5 26.7 18.5C27.1 18.5 27.4 18.7 27.4 19.1C27.4 19.4 27.1 19.7 26.8 19.7C26.6 19.7 26.4 19.7 26.2 19.7C25.9 19.7 25.8 19.8 25.9 20.1C26.1 20.7 26.2 21.2 26.4 21.8C26.8 22.8 27.2 23.8 27.6 24.7C27.8 25.1 28 25.3 28.4 25.2C28.5 25.2 28.6 25.2 28.8 25.2C29.2 25.2 29.5 25.4 29.5 25.8C29.5 26.2 29.3 26.4 28.8 26.5C28.5 26.5 28.5 26.6 28.6 26.8C29.1 27.7 29.6 28.6 30.2 29.5C31.1 30.9 32.1 32.3 33 33.7C33.2 33.9 33.3 34.2 33.1 34.4C32.9 34.7 32.7 34.7 32.5 34.7C31.7 34.7 30.9 34.7 30.1 34.7C29.4 34.7 28.8 34.7 28.1 34.7C27.8 34.7 27.6 34.5 27.5 34.2C27.3 33.6 27.1 33 26.9 32.5C25.8 30.4 24.3 29.7 22.1 30C21.6 30.1 21.1 30.3 20.7 30.5C19.4 31.3 18.7 32.7 18.3 34.1C18.2 34.6 18 34.7 17.6 34.7C16.7 34.8 16 34.8 15.3 34.8ZM22.8 19.8C22.4 19.8 21.9 19.8 21.5 19.8C21.4 19.8 21.2 19.9 21.2 20C21.1 20.2 21.1 20.5 21 20.7C20.7 22 20.2 23.3 19.6 24.5C19 25.7 18.4 26.9 17.7 28.1C16.7 29.8 15.6 31.4 14.5 33.1C14.4 33.2 14.4 33.3 14.4 33.4C14.5 33.4 14.6 33.5 14.7 33.5C15.3 33.5 16 33.5 16.6 33.5C16.8 33.5 17 33.4 17 33.2C17.2 32.8 17.4 32.3 17.6 31.9C18.1 30.9 18.7 30.1 19.6 29.5C21.1 28.6 22.7 28.4 24.3 28.9C25.7 29.3 26.8 30.2 27.5 31.5C27.8 32 28 32.6 28.3 33.1C28.4 33.3 28.5 33.4 28.7 33.4C29.4 33.4 30.1 33.4 30.8 33.4C30.9 33.4 31.1 33.4 31.1 33.3C31.1 33.2 31.1 33.1 31 33C30.4 32.1 29.7 31.1 29.1 30.2C27.7 28 26.5 25.8 25.5 23.5C25 22.3 24.7 21.1 24.3 19.9C24.2 19.7 24.2 19.6 24 19.6C23.6 19.8 23.2 19.8 22.8 19.8ZM22 12.7C21.9 13.5 21.8 14.2 21.8 14.9C21.7 16 21.6 17.1 21.4 18.1C21.4 18.4 21.4 18.5 21.7 18.5C22.4 18.5 23.1 18.5 23.7 18.5C24 18.5 24.1 18.4 24 18.1C23.9 17.1 23.7 16.1 23.6 15C23.5 14.2 23.4 13.5 23.4 12.6C23 13.2 22.5 13.2 22 12.7ZM22.8 2.7L21.7791 4.6C21.7791 4.6 22.5075 5.22251 22.6 5.5C22.6 5.5 22.398 8.83005 22.3 10.3C22.3 10.6 22.5 10.8 22.7 10.9C22.9 11 23.1 10.9 23.3 10.8C23.5 10.6 23.5 10.4 23.5 10.2C23.4 7.7 23 5.5 23 5.5L24 4.5L22.8 2.7Z" fill="#B79C10"/>
<path id="Vector_4" fill-rule="evenodd" clip-rule="evenodd" d="M11.9 12.1C12.4 12.1 12.8 12.5 12.8 12.9C12.9 13.3 12.6 13.6 12.2 13.8C11.6 14 11 14.2 10.4 14.6C8.2 16 6.9 18 6.9 20.6C6.9 21.3 7 22.1 7.1 22.8C7.1 23.2 6.8 23.7 6.4 23.8C6 23.9 5.5 23.7 5.4 23.2C5.1 22.3 5 21.3 5 20.4C5.1 19 5.5 17.7 6.1 16.5C7.2 14.6 8.7 13.2 10.7 12.4C11.2 12.3 11.6 12.2 11.9 12.1Z" fill="#B79C10"/>
<path id="Vector_5" fill-rule="evenodd" clip-rule="evenodd" d="M22.8 26.8C22.3 26.8 21.7 26.8 21.2 26.8C20.7 26.8 20.4 26.5 20.5 26C20.7 25.2 20.9 24.4 21.1 23.7C21.2 23.1 21.3 22.5 21.4 21.8C21.5 21.4 21.6 21.1 22.1 21.1C22.6 21.1 23.1 21.1 23.5 21.1C23.9 21.1 24.1 21.3 24.2 21.7C24.5 23.1 24.8 24.5 25.1 26C25.2 26.6 25 26.9 24.4 26.9C23.8 26.8 23.3 26.8 22.8 26.8ZM22.7 25.5C22.9 25.5 23.2 25.5 23.4 25.5C23.6 25.5 23.6 25.4 23.6 25.2C23.4 24.3 23.2 23.5 23 22.6C23 22.4 23 22.2 22.7 22.2C22.4 22.2 22.4 22.4 22.4 22.6C22.3 23.3 22.2 23.9 22 24.6C21.9 25.5 21.8 25.5 22.7 25.5Z" fill="#B79C10"/>
</g>
</g>
<path id="Vector_6" fill-rule="evenodd" clip-rule="evenodd" d="M33.3 11.2C32.8 11.2 32.4 11.6 32.4 12C32.3 12.4 32.6 12.7 33 12.9C33.6 13.1 34.2 13.3 34.8 13.7C37 15.1 38.3 17.1 38.3 19.7C38.3 20.4 38.2 21.2 38.1 21.9C38.1 22.3 38.4 22.8 38.8 22.9C39.2 23 39.7 22.8 39.8 22.3C40.1 21.4 40.2 20.4 40.2 19.5C40.1 18.1 39.7 16.8 39.1 15.6C38 13.7 36.5 12.3 34.5 11.5C34 11.4 33.6 11.3 33.3 11.2Z" fill="white"/>
</g>
</svg>
