<svg width="47" height="46" viewBox="0 0 47 46" fill="none" xmlns="http://www.w3.org/2000/svg">
<rect width="47" height="46" fill="#E5E5E5"/>
<rect width="1440" height="4037" transform="translate(-313 -2632)" fill="white"/>
<g filter="url(#filter0_d_51_0)">
<rect x="-241" y="-251" width="1296" height="568" rx="4" fill="white"/>
<g clip-path="url(#clip0_51_0)">
<circle cx="22" cy="25" r="23" fill="#FFE145"/>
<path d="M24 45.9998C28.179 46.0035 32.2797 44.8652 35.8588 42.7078C36.2212 42.4886 36.3374 42.0172 36.1183 41.6547C35.8992 41.2923 35.4277 41.1761 35.0653 41.3952C28.0757 45.5904 19.3131 45.4646 12.4468 41.0705C5.58055 36.6764 1.79568 28.7723 2.67715 20.6682C3.55862 12.5641 8.95432 5.65854 16.6047 2.84337C17.0023 2.69751 17.2064 2.25695 17.0605 1.85936C16.9146 1.46177 16.4741 1.25771 16.0765 1.40357C5.60257 5.24088 -0.608022 16.0406 1.3433 27.0233C3.29462 38.006 12.8453 46.0053 24 45.9998Z" fill="#313030"/>
<path d="M31.3952 2.84337C37.451 5.06833 42.1858 9.89746 44.291 15.9959C46.3962 22.0942 45.6487 28.8159 42.2551 34.3028C42.1107 34.5356 42.1016 34.8277 42.231 35.0692C42.3605 35.3106 42.6089 35.4646 42.8827 35.4732C43.1565 35.4818 43.4141 35.3437 43.5584 35.1108C47.1953 29.2322 47.9969 22.03 45.7413 15.4957C43.4858 8.96128 38.4123 3.78704 31.9235 1.40357C31.5259 1.25771 31.0853 1.46177 30.9395 1.85936C30.7936 2.25695 30.9977 2.69751 31.3952 2.84337Z" fill="#313030"/>
<path d="M20.9333 14.2446V20.7237C20.1201 21.799 19.9374 23.2247 20.4533 24.4703C20.9692 25.7159 22.1064 26.595 23.4418 26.7804L29.4165 32.755L29.4211 32.7619L40.2633 43.6003C40.5509 43.888 40.941 44.0496 41.3477 44.0496C41.7545 44.0496 42.1446 43.888 42.4322 43.6003C44.8334 41.1983 43.4143 38.0803 37.0111 31.674L33.7581 28.421H33.7528L27.7766 22.441C27.6857 21.8187 27.4418 21.2286 27.0667 20.7237V14.2431C28.4645 13.6363 29.3683 12.2571 29.3667 10.7333V2.29992C29.3709 1.68939 29.1265 1.10342 28.6897 0.676889C28.6534 0.63768 28.6139 0.601525 28.5716 0.568788C27.7005 -0.200403 26.3891 -0.187498 25.5333 0.598688C25.1094 0.207203 24.5517 -0.00706154 23.9747 -7.86756e-05C23.4152 0.0121544 22.8786 0.224289 22.462 0.597922C21.6141 -0.182239 20.3154 -0.201051 19.4452 0.554222C18.9286 0.986531 18.631 1.62627 18.6333 2.29992V10.7333C18.6311 12.2577 19.535 13.6376 20.9333 14.2446ZM29.9647 31.1266L25.3946 26.5573C26.3865 26.1677 27.1715 25.3827 27.5612 24.3907L32.1267 28.9646L29.9647 31.1266ZM25.5333 19.4917C24.557 19.0582 23.4429 19.0582 22.4666 19.4917V14.5666H25.5333V19.4917ZM21.7 22.9999C21.7 21.7297 22.7297 20.6999 24 20.6999C25.2702 20.6999 26.3 21.7297 26.3 22.9999C26.3 24.2702 25.2702 25.2999 24 25.2999C22.7297 25.2999 21.7 24.2702 21.7 22.9999ZM41.3474 42.5162L31.048 32.216L33.2161 30.0479L35.927 32.7581C43.5163 40.3473 42.1593 41.7066 41.3474 42.5162ZM20.1666 2.29992C20.1687 2.07366 20.2705 1.85985 20.4449 1.71572C20.7493 1.45629 21.2032 1.47915 21.4799 1.76786C21.6221 1.90823 21.7015 2.10013 21.7 2.29992V8.43326C21.7 8.85668 22.0432 9.19993 22.4666 9.19993C22.8901 9.19993 23.2333 8.85668 23.2333 8.43326V2.29992C23.2392 1.89963 23.5468 1.56857 23.9456 1.53326H24.0721C24.4652 1.5743 24.7645 1.90464 24.7667 2.29992V8.43326C24.7667 8.85668 25.1099 9.19993 25.5333 9.19993C25.9567 9.19993 26.3 8.85668 26.3 8.43326V2.29992C26.3 1.8765 26.6432 1.53326 27.0667 1.53326C27.4901 1.53326 27.8333 1.8765 27.8333 2.29992V10.7333C27.8339 11.7879 27.1157 12.7073 26.0922 12.962C25.9102 13.0117 25.722 13.0357 25.5333 13.0333H22.4666C22.2713 13.035 22.0767 13.0092 21.8886 12.9566C20.8736 12.6967 20.1644 11.781 20.1666 10.7333V2.29992Z" fill="#313030"/>
<path d="M17.0302 5.96003C16.854 5.57526 16.3993 5.40608 16.0144 5.58207C15.4877 5.8228 14.9809 6.09343 14.481 6.37787C14.4588 6.3886 14.435 6.3886 14.4136 6.40087C14.3921 6.41313 14.3745 6.4392 14.3515 6.4553C11.5042 8.12006 9.1347 10.4914 7.47215 13.34C7.44677 13.3637 7.42319 13.3894 7.40162 13.4166C7.38923 13.4458 7.37898 13.4757 7.37095 13.5063C3.98188 19.3996 3.98773 26.6518 7.38629 32.5396C7.39395 32.5534 7.39319 32.5695 7.40162 32.5833C7.41005 32.5971 7.42922 32.6178 7.44225 32.6362C9.11958 35.5059 11.5099 37.8935 14.3814 39.5677C14.3944 39.5769 14.4021 39.5907 14.4166 39.5991C14.4384 39.6094 14.4606 39.6186 14.4833 39.6267C20.1969 42.908 27.1972 43.0166 33.0098 39.9142C33.2587 39.7891 33.4202 39.5389 33.4316 39.2605C33.443 38.9822 33.3025 38.7196 33.0647 38.5746C32.8268 38.4296 32.5291 38.425 32.2869 38.5626C29.9646 39.7983 27.3949 40.4978 24.7666 40.6096V39.1C24.7666 38.6766 24.4234 38.3333 24 38.3333C23.5765 38.3333 23.2333 38.6766 23.2333 39.1V40.6142C20.6593 40.5048 18.1412 39.8286 15.8587 38.6339L16.6139 37.3267C16.753 37.0894 16.7543 36.7957 16.6173 36.5571C16.4803 36.3185 16.2259 36.1717 15.9508 36.1723C15.6757 36.1729 15.422 36.3209 15.286 36.56L14.5324 37.8634C12.3635 36.4765 10.5219 34.6349 9.13505 32.466L10.4384 31.7124C10.6776 31.5764 10.8255 31.3227 10.8261 31.0476C10.8267 30.7725 10.6799 30.5181 10.4413 30.3811C10.2028 30.2441 9.90906 30.2454 9.67172 30.3845L8.36839 31.1397C7.17303 28.8578 6.49606 26.3403 6.38578 23.7666H7.89995C8.32337 23.7666 8.66662 23.4234 8.66662 23C8.66662 22.5766 8.32337 22.2333 7.89995 22.2333H6.39498C6.50741 19.6615 7.18344 17.1458 8.37529 14.8641L9.67325 15.6139C9.91059 15.753 10.2043 15.7543 10.4428 15.6173C10.6814 15.4803 10.8283 15.2259 10.8277 14.9508C10.8271 14.6757 10.6791 14.422 10.4399 14.286L9.13659 13.5332C10.5198 11.3617 12.3612 9.51904 14.5316 8.1343L15.286 9.43764C15.422 9.6768 15.6757 9.82477 15.9508 9.82537C16.2259 9.82598 16.4803 9.67913 16.6173 9.44056C16.7543 9.202 16.753 8.90831 16.6139 8.67097L15.8633 7.36763C16.124 7.23193 16.3831 7.09394 16.6522 6.9705C17.034 6.7943 17.2026 6.34352 17.0302 5.96003Z" fill="#313030"/>
<path d="M39.8585 32.3379C40.0375 32.4345 40.2474 32.4561 40.4422 32.3978C40.6371 32.3396 40.8008 32.2064 40.8974 32.0274C44.0159 26.2225 43.9145 19.2184 40.629 13.5063C40.621 13.4757 40.6107 13.4457 40.5984 13.4166C40.5771 13.3893 40.5537 13.3637 40.5286 13.3399C38.8648 10.491 36.494 8.11964 33.6455 6.45526C33.6225 6.43916 33.6079 6.41539 33.5833 6.40083C33.5613 6.39227 33.5387 6.38485 33.5159 6.37859C33.0191 6.09339 32.5123 5.82276 31.9825 5.58203C31.6012 5.42548 31.1644 5.59847 30.9936 5.97363C30.8228 6.34879 30.9793 6.79184 31.3477 6.97659C31.6168 7.10003 31.876 7.23803 32.1366 7.37373L31.3861 8.67706C31.2469 8.9144 31.2456 9.20809 31.3827 9.44665C31.5197 9.68522 31.774 9.83207 32.0492 9.83146C32.3243 9.83086 32.578 9.68289 32.714 9.44373L33.4683 8.14039C35.6388 9.52513 37.4802 11.3678 38.8634 13.5393L37.5601 14.2921C37.3209 14.4281 37.1729 14.6818 37.1723 14.9569C37.1717 15.232 37.3186 15.4864 37.5571 15.6234C37.7957 15.7604 38.0894 15.7591 38.3267 15.62L39.6247 14.8702C40.8157 17.1501 41.4917 19.6636 41.605 22.2333H40.1C39.6766 22.2333 39.3334 22.5765 39.3334 22.9999C39.3334 23.4233 39.6766 23.7666 40.1 23.7666H41.6096C41.4995 26.4008 40.7947 28.9759 39.548 31.2991C39.4514 31.478 39.4299 31.688 39.4881 31.8828C39.5463 32.0776 39.6796 32.2414 39.8585 32.3379Z" fill="#313030"/>
</g>
</g>
<defs>
<filter id="filter0_d_51_0" x="-281" y="-283" width="1376" height="648" filterUnits="userSpaceOnUse" color-interpolation-filters="sRGB">
<feFlood flood-opacity="0" result="BackgroundImageFix"/>
<feColorMatrix in="SourceAlpha" type="matrix" values="0 0 0 0 0 0 0 0 0 0 0 0 0 0 0 0 0 0 127 0" result="hardAlpha"/>
<feOffset dy="8"/>
<feGaussianBlur stdDeviation="20"/>
<feColorMatrix type="matrix" values="0 0 0 0 0 0 0 0 0 0 0 0 0 0 0 0 0 0 0.08 0"/>
<feBlend mode="normal" in2="BackgroundImageFix" result="effect1_dropShadow_51_0"/>
<feBlend mode="normal" in="SourceGraphic" in2="effect1_dropShadow_51_0" result="shape"/>
</filter>
<clipPath id="clip0_51_0">
<rect width="48" height="48" fill="white" transform="translate(-1)"/>
</clipPath>
</defs>
</svg>
